<?xml version="1.0" encoding="UTF-8"?><svg id="a" xmlns="http://www.w3.org/2000/svg" viewBox="0 0 3000 1500"><path d="m500,926.92c0-40.12,32.7-72.73,72.93-72.73h1854.14c40.23,0,72.93,32.61,72.93,72.73s-32.7,72.73-72.93,72.73H572.93c-40.23,0-72.93-32.61-72.93-72.73Z" style="fill:#f0d722; stroke-width:0px;"/><path d="m575.89,746.12h-75.89v-242.95h76.98c49.1,0,72.01,23.28,72.01,59.53,0,32.73-18.43,50.07-42.8,56.74v.73c28.25,4.49,47.4,25.09,47.4,58.43,0,41.1-27.88,67.53-77.59,67.53h-.12Zm-9.09-208.52h-20.25v66.44h15.64c25.1,0,40.01-10.79,40.01-34.07,0-19.52-11.88-32.37-35.52-32.37h.12Zm4.85,101.35h-25.1v72.01h21.94c25.7,0,38.31-14.91,38.31-35.89s-11.88-36.25-35.16-36.25v.12Z" style="fill:#262626; stroke-width:0px;"/><path d="m798.72,746.12h-50.8l-73.1-242.95h51.52l47.65,185.85h.73l49.46-185.85h48.74l-74.2,242.95Z" style="fill:#262626; stroke-width:0px;"/><path d="m1007.97,749.64c-75.89,0-120.51-50.8-120.51-124.27s43.52-125.72,121.23-125.72c26.07,0,46.68,4.85,59.89,10.43l-1.7,41.46c-15.28-8.73-34.79-14.31-55.04-14.31-44.86,0-74.56,31.64-74.56,84.99s24.73,89.11,66.44,89.11c9.09,0,19.16-1.7,25.7-5.21v-61.22h-36.86v-35.89h82.2v127.42c-14.31,6.3-40.73,13.21-66.8,13.21Z" style="fill:#262626; stroke-width:0px;"/><path d="m1299.42,652.89h-24v93.35h-48.01v-243.07h69.59c54.68,0,80.38,29.22,80.38,74.8,0,48.01-29.22,74.8-77.95,74.8v.12Zm-11.88-113.84h-13.58v77.95h14.31c27.16,0,40.37-14.67,40.37-37.95,0-28.25-15.28-40.01-41.1-40.01Z" style="fill:#262626; stroke-width:0px;"/><path d="m1521.27,746.12l-23.03-75.53c-6.67-21.58-16.37-26.79-33.1-26.79h-8.73v102.32h-48.01v-242.95h79.77c56.01,0,73.1,30.67,73.1,64.38,0,30.67-18.79,50.43-47.4,56.74v1.09c14.31,3.52,21.94,10.43,29.58,34.07l28.25,86.68h-50.43Zm-44.86-207.19h-21.22v68.62h21.58c23.28,0,35.89-15.64,35.89-34.07,0-21.94-13.21-34.43-36.25-34.43v-.12Z" style="fill:#262626; stroke-width:0px;"/><path d="m1695.97,749.64c-53.22,0-98.2-41.1-98.2-123.9,0-87.05,44.61-126.08,99.53-126.08s98.2,41.1,98.2,123.9c0,87.05-44.25,126.08-99.54,126.08Zm1.45-213.74c-29.94,0-50.19,28.85-50.19,89.83,0,48.74,14.31,87.77,48.74,87.77,29.95,0,49.83-28.85,49.83-89.83,0-48.37-14.31-87.77-48.37-87.77Z" style="fill:#262626; stroke-width:0px;"/><path d="m1854.91,749.64c-10.79,0-23.28-2.42-33.46-5.21l1.09-40.73c5.58,2.06,12.12,4.12,18.79,4.12,20.25,0,28.85-13.58,28.85-37.95v-166.7h48.01v171.67c0,47.4-20.25,74.8-63.41,74.8h.12Z" style="fill:#262626; stroke-width:0px;"/><path d="m1968.15,746.12v-242.95h131.3v37.22h-83.89v61.95h79.77v37.22h-79.77v69.22h88.38v37.22h-135.78v.12Z" style="fill:#262626; stroke-width:0px;"/><path d="m2266.26,746.12l-69.59-113.48h-.73v113.48h-48.01v-242.95h48.01v101.96h.73l66.8-101.96h54.31l-80.38,114.2,87.05,128.75h-58.19Z" style="fill:#262626; stroke-width:0px;"/><path d="m2446.05,541.11v205.01h-48.37v-205.01h-53.95v-37.95h156.27v37.95h-53.95Z" style="fill:#262626; stroke-width:0px;"/></svg>